<?xml version="1.0" encoding="UTF-8" standalone="no"?>
<!-- Generator: Adobe Illustrator 16.0.0, SVG Export Plug-In . SVG Version: 6.00 Build 0)  -->

<svg
   xmlns:dc="http://purl.org/dc/elements/1.1/"
   xmlns:cc="http://creativecommons.org/ns#"
   xmlns:rdf="http://www.w3.org/1999/02/22-rdf-syntax-ns#"
   xmlns:svg="http://www.w3.org/2000/svg"
   xmlns="http://www.w3.org/2000/svg"
   xmlns:sodipodi="http://sodipodi.sourceforge.net/DTD/sodipodi-0.dtd"
   xmlns:inkscape="http://www.inkscape.org/namespaces/inkscape"
   version="1.1"
   id="Layer_1"
   x="0px"
   y="0px"
   width="97px"
   height="97px"
   viewBox="0 0 97 97"
   enable-background="new 0 0 97 97"
   xml:space="preserve"
   sodipodi:docname="git-vuln-finder.svg"
   inkscape:version="0.92.4 (5da689c313, 2019-01-14)"><metadata
   id="metadata68"><rdf:RDF><cc:Work
       rdf:about=""><dc:format>image/svg+xml</dc:format><dc:type
         rdf:resource="http://purl.org/dc/dcmitype/StillImage" /><dc:title></dc:title></cc:Work></rdf:RDF></metadata><defs
   id="defs66" /><sodipodi:namedview
   pagecolor="#ffffff"
   bordercolor="#666666"
   borderopacity="1"
   objecttolerance="10"
   gridtolerance="10"
   guidetolerance="10"
   inkscape:pageopacity="0"
   inkscape:pageshadow="2"
   inkscape:window-width="1440"
   inkscape:window-height="855"
   id="namedview64"
   showgrid="false"
   inkscape:zoom="0.2"
   inkscape:cx="-821.5"
   inkscape:cy="-745.24712"
   inkscape:window-x="6"
   inkscape:window-y="0"
   inkscape:window-maximized="0"
   inkscape:current-layer="Layer_1" />

<g
   id="g4028"
   transform="rotate(-0.22197761,-1317.0018,325.67521)"><g
     transform="matrix(19.119851,0,0,19.119851,-2244.2955,-601.65668)"
     id="g61">
	<path
   style="fill:#f05133"
   inkscape:connector-curvature="0"
   id="path59"
   d="M 92.71,44.408 52.591,4.291 c -2.31,-2.311 -6.057,-2.311 -8.369,0 l -8.33,8.332 10.567,10.567 c 2.456,-0.83 5.272,-0.273 7.229,1.685 1.969,1.97 2.521,4.81 1.67,7.275 l 10.186,10.185 c 2.465,-0.85 5.307,-0.3 7.275,1.671 2.75,2.75 2.75,7.206 0,9.958 -2.752,2.751 -7.208,2.751 -9.961,0 -2.068,-2.07 -2.58,-5.11 -1.531,-7.658 l -9.5,-9.499 v 24.997 c 0.67,0.332 1.303,0.774 1.861,1.332 2.75,2.75 2.75,7.206 0,9.959 -2.75,2.749 -7.209,2.749 -9.957,0 -2.75,-2.754 -2.75,-7.21 0,-9.959 0.68,-0.679 1.467,-1.193 2.307,-1.537 v -25.23 c -0.84,-0.344 -1.625,-0.853 -2.307,-1.537 -2.083,-2.082 -2.584,-5.14 -1.516,-7.698 L 31.798,16.715 4.288,44.222 c -2.311,2.313 -2.311,6.06 0,8.371 l 40.121,40.118 c 2.31,2.311 6.056,2.311 8.369,0 L 92.71,52.779 c 2.311,-2.311 2.311,-6.06 0,-8.371 z" />
</g><g
     style="fill:#ffffff"
     id="layer2"
     transform="matrix(2.6673272,0,0,2.6673275,-2540.2293,-875.1307)"><path
       style="fill:#ffffff;fill-rule:evenodd"
       inkscape:connector-curvature="0"
       id="path2397"
       d="m 338.78,288.75 c -4.24,0.02 -8.42,2.51 -9.5,5.75 -6.78,0.03 -14.64,3.5 -19.5,6.16 -3.59,1.96 -6.14,5.81 -9.25,7.28 -20.47,9.67 -16.2,22.75 -22.31,34.78 -1.26,2.48 -0.88,6.68 -2.5,8.94 -3.4,4.73 -18.97,16.56 -21.78,21.4 -0.47,0.8 1.26,2.17 2.15,2.38 5.44,1.26 12,1.29 16.75,0.5 0.76,1.58 -2.83,4.34 -3.31,6.03 -1.15,4.04 2.22,9.8 1.19,12.53 -1.89,0.17 -7.53,-0.01 -10,-0.03 -5.07,-0.05 -11.72,-3.66 -15,-1.03 -1.65,1.31 -0.23,5.36 -1.78,6.78 -0.48,0.44 -1.71,-0.13 -2.16,0.34 -1.47,1.57 -1.24,5.72 -0.72,7.16 0.66,1.81 4.54,2.2 5.44,3.9 0.78,1.48 0.67,2.79 -0.78,3.6 -6.84,3.81 -21.28,28.75 -28.66,42.06 -9.13,16.46 -19.12,39.31 -24.9,57.22 -6.73,20.83 -25.09,107.52 -11.44,124.62 45.03,56.46 119.12,54.9 186.79,29.68 10.82,-4.03 1.79,-68.42 18.48,-90.77 4.95,-6.64 12.29,-18.18 17.71,-27.28 2.11,0.17 2.34,-0.35 2.57,-1.19 0.43,-1.57 -0.23,-1.24 -0.61,-2.78 6.2,-8.02 12.53,-25.37 13.81,-37.28 0.42,-3.9 -2.11,-3.38 -1.97,-5.34 0.2,-2.73 3.56,-4.97 3.22,-7.69 -0.27,-2.11 -3.2,-2.9 -3.56,-5.19 1.88,-2.1 6.35,-7.16 9.62,-10.34 2.51,0.39 4.94,-3.86 3.13,-6.44 -3.94,-5.58 -10.5,-9.77 -17.32,-11.34 -0.01,-0.01 -0.02,0 -0.03,0 -0.86,-0.5 -1.52,-1.19 -1.94,-2.5 -0.1,-0.35 0.6,-0.69 0.82,-0.97 0.36,-0.48 0.58,-1.42 0.34,-1.97 -0.23,-0.53 -1.34,-0.54 -1.59,-1.06 -0.88,-1.82 -0.21,-5.63 0.34,-8.04 3.92,-0.84 7.68,-2.89 10.47,-5.56 12.09,-10.76 18.78,-28.48 14.84,-44.5 -1.66,-6.67 -7.07,-12.58 -14.18,-12.72 -0.48,-0.01 -0.95,0.02 -1.44,0.07 -13.03,1.44 -21.79,13.58 -26.22,25 -4.01,10.79 -5.32,25.03 2.81,34.06 2.67,2.79 6.08,3.99 9.6,4.06 -1.04,5.86 -5.7,9.79 -10.5,10.75 -1.71,0.34 -1.26,2.48 -1,3.47 0.25,0.99 1.23,1.19 1.53,1.97 0.27,0.7 0.36,1.59 0.34,2.56 -0.68,0.57 -1.37,1.13 -2.06,1.72 -4.13,3.48 -8.47,11.06 -11.81,15.66 -3.29,-1.79 -2.01,-4.02 -8.41,-5.69 l 4.56,-12.81 -2.65,-1.07 1.47,-5.43 h 2.37 l 0.72,-1.32 -2.38,-1.28 0.53,-1.94 1.38,-0.12 c 4.63,-16.21 6.01,-29.15 -13.53,-37.19 1.18,-1.57 2.91,-2.95 3.94,-4.53 1.14,-1.76 0.41,-5.7 2.31,-6.59 2.88,1.24 9.51,5.03 11.94,-1.41 2.86,-7.6 -4.75,-21.6 -3.57,-29.66 0.59,-3.97 3.62,-1 4.66,-3.4 0.66,-1.53 -0.04,-4.6 0.63,-7.78 5.04,1.13 17.23,2.68 23.09,3.09 1.38,0.1 2.68,-1.54 1.97,-2.19 -7.5,-6.77 -16.88,-16.23 -21.6,-19.9 -0.47,-2.01 0.83,-5.43 -0.25,-7.16 -4.06,-6.56 -6.45,-10.82 -8.53,-22.81 -0.74,-4.25 -20.05,-15.28 -31.9,-18.97 -0.47,-3.68 -5.49,-7.88 -10,-8.22 -0.29,-0.02 -0.6,-0.03 -0.88,-0.03 z m 80.88,100.47 c 9.06,-0.01 12.67,10.52 12.5,18.22 -0.37,14.09 -6.46,29.03 -18.91,36.31 -5.89,3.72 -14.05,1.11 -16.5,-5.41 -5.39,-13.3 -0.54,-28.88 7.63,-39.72 3.8,-4.61 8.9,-9.2 15.28,-9.4 z m -0.1,2.81 c -0.35,0.01 -0.7,0.05 -1.06,0.09 -9.66,1.53 -15.82,11.27 -18.78,20.32 -0.94,3.02 -1.64,6.35 -1.84,9.72 0.38,-3.41 1.34,-6.78 2.53,-9.78 4.29,-10.91 18.43,-25.69 28.78,-14.07 -2.01,-3.66 -5.48,-6.37 -9.63,-6.28 z m -53.75,28.56 c 13.58,5.83 16.55,15.05 8.38,33.38 l 1.4,0.75 -0.34,1.97 h -2.44 l -0.06,1.78 2.03,0.97 -0.9,5.28 -2.82,-0.31 c -0.89,18.57 -6.34,11.39 -6.22,24.4 0.09,9.14 4.45,14.14 7.44,16.78 -0.49,0.63 -0.99,1.24 -1.56,1.79 -3.3,3.14 -6.12,6.15 -8.13,7.84 -8.29,-12.51 -23.88,-33.3 -33.31,-45 -1.89,-2.35 -1.93,-7.14 0.28,-9.19 3.74,-1.04 7.56,2.84 8.22,0.25 1.85,-7.19 -17.53,-14.77 -14.31,-21.5 8.04,-1.38 15.09,0.78 21.34,0.72 6.25,-0.06 12.65,-0.83 13.94,-2.78 1.73,-2.61 1.87,-5.96 2.87,-8.78 0.52,-1.44 2.46,-2.24 2.94,-3.22 0.77,-1.55 0.76,-3.45 1.25,-5.13 z" /></g><text
     transform="rotate(-44.617178)"
     id="text3990"
     y="-102.5723"
     x="-1774.3383"
     style="font-style:normal;font-variant:normal;font-weight:normal;font-stretch:normal;font-size:192px;line-height:1.25;font-family:Terminal;-inkscape-font-specification:'Terminal, Normal';font-variant-ligatures:normal;font-variant-caps:normal;font-variant-numeric:normal;font-feature-settings:normal;text-align:start;letter-spacing:0px;word-spacing:0px;writing-mode:lr-tb;text-anchor:start;fill:#ffffff;fill-opacity:1;stroke:none"
     xml:space="preserve"><tspan
       style="font-style:normal;font-variant:normal;font-weight:normal;font-stretch:normal;font-size:192px;font-family:'Trebuchet MS';-inkscape-font-specification:'Trebuchet MS, Normal';font-variant-ligatures:normal;font-variant-caps:normal;font-variant-numeric:normal;font-feature-settings:normal;text-align:start;writing-mode:lr-tb;text-anchor:start;fill:#ffffff"
       y="-102.5723"
       x="-1774.3383"
       id="tspan3988"
       sodipodi:role="line">git-vuln-finder</tspan></text>
</g></svg>